<svg width="199" height="115" viewBox="0 0 199 115" fill="none" xmlns="http://www.w3.org/2000/svg">
<path d="M89.5 79.5C77.8527 100.512 57.4228 107.193 36.4106 95.5458C15.3984 83.8986 10.3527 59.0122 22 38C33.6473 16.9878 60.4877 10.8528 81.4999 22.5C102.512 34.1473 101.147 58.4878 89.5 79.5Z" fill="white"/>
<ellipse cx="56.5" cy="57" rx="41.5" ry="40" fill="#0C1D37"/>
<ellipse cx="110" cy="54.5" rx="40" ry="41.5" fill="#0C1D37"/>
<path d="M63 44.0274C63 44.0274 63 37.5274 55 38.0274C47 38.5274 43 47.5274 43 47.5274C43 47.5274 58 51.0274 63 59.0274C68 67.0275 49.4999 75.0275 49.4999 75.0275" stroke="white" stroke-width="3"/>
<path d="M68.9312 43.023C68.9312 43.023 68.9312 36.5278 58.9587 37.0274C48.9862 37.527 44 46.5204 44 46.5204C44 46.5204 62.6983 50.0177 68.9312 58.0118C75.164 66.0059 52.1025 74 52.1025 74" stroke="white"/>
<path d="M114.078 62.0938C114.078 61.6562 114.01 61.2656 113.875 60.9219C113.75 60.5677 113.516 60.25 113.172 59.9688C112.839 59.6771 112.365 59.3958 111.75 59.125C111.146 58.8438 110.365 58.5521 109.406 58.25C108.344 57.9167 107.354 57.5417 106.438 57.125C105.521 56.7083 104.714 56.224 104.016 55.6719C103.328 55.1198 102.792 54.4844 102.406 53.7656C102.021 53.0365 101.828 52.1927 101.828 51.2344C101.828 50.2969 102.026 49.4427 102.422 48.6719C102.828 47.901 103.401 47.2396 104.141 46.6875C104.88 46.125 105.75 45.6927 106.75 45.3906C107.76 45.0885 108.875 44.9375 110.094 44.9375C111.781 44.9375 113.24 45.2448 114.469 45.8594C115.708 46.474 116.667 47.3073 117.344 48.3594C118.021 49.4115 118.359 50.5938 118.359 51.9062H114.078C114.078 51.1979 113.927 50.5729 113.625 50.0312C113.333 49.4896 112.885 49.0625 112.281 48.75C111.688 48.4375 110.938 48.2812 110.031 48.2812C109.156 48.2812 108.427 48.4115 107.844 48.6719C107.271 48.9323 106.839 49.2865 106.547 49.7344C106.266 50.1823 106.125 50.6823 106.125 51.2344C106.125 51.651 106.224 52.026 106.422 52.3594C106.62 52.6823 106.917 52.9896 107.312 53.2812C107.708 53.5625 108.198 53.8281 108.781 54.0781C109.375 54.3177 110.062 54.5573 110.844 54.7969C112.094 55.1719 113.188 55.5885 114.125 56.0469C115.073 56.5052 115.859 57.026 116.484 57.6094C117.12 58.1927 117.594 58.849 117.906 59.5781C118.229 60.3073 118.391 61.1354 118.391 62.0625C118.391 63.0417 118.198 63.9167 117.812 64.6875C117.427 65.4583 116.875 66.1146 116.156 66.6562C115.438 67.1979 114.573 67.6094 113.562 67.8906C112.562 68.1719 111.443 68.3125 110.203 68.3125C109.099 68.3125 108.005 68.1667 106.922 67.875C105.849 67.5729 104.875 67.125 104 66.5312C103.125 65.9271 102.427 65.1667 101.906 64.25C101.385 63.3229 101.125 62.2396 101.125 61H105.438C105.438 61.7188 105.552 62.3333 105.781 62.8438C106.021 63.3438 106.354 63.7552 106.781 64.0781C107.219 64.3906 107.729 64.6198 108.312 64.7656C108.896 64.9115 109.526 64.9844 110.203 64.9844C111.078 64.9844 111.797 64.8646 112.359 64.625C112.932 64.375 113.359 64.0312 113.641 63.5938C113.932 63.1562 114.078 62.6562 114.078 62.0938ZM130.453 59.7031H124.594V56.3281H130.453C131.411 56.3281 132.188 56.1719 132.781 55.8594C133.385 55.5365 133.828 55.099 134.109 54.5469C134.391 53.9844 134.531 53.3438 134.531 52.625C134.531 51.9271 134.391 51.276 134.109 50.6719C133.828 50.0677 133.385 49.5781 132.781 49.2031C132.188 48.8281 131.411 48.6406 130.453 48.6406H126V68H121.703V45.25H130.453C132.224 45.25 133.734 45.5677 134.984 46.2031C136.245 46.8281 137.203 47.6979 137.859 48.8125C138.526 49.9167 138.859 51.1771 138.859 52.5938C138.859 54.0625 138.526 55.3281 137.859 56.3906C137.203 57.4531 136.245 58.2708 134.984 58.8438C133.734 59.4167 132.224 59.7031 130.453 59.7031ZM146.812 45.25V68H142.516V45.25H146.812ZM151.453 45.25H159.719C161.448 45.25 162.932 45.5104 164.172 46.0312C165.411 46.5521 166.365 47.3229 167.031 48.3438C167.698 49.3646 168.031 50.6198 168.031 52.1094C168.031 53.2865 167.823 54.3073 167.406 55.1719C166.99 56.0365 166.401 56.7604 165.641 57.3438C164.891 57.9271 164.005 58.3854 162.984 58.7188L161.641 59.4062H154.344L154.312 56.0156H159.766C160.651 56.0156 161.385 55.8594 161.969 55.5469C162.552 55.2344 162.99 54.8021 163.281 54.25C163.583 53.6979 163.734 53.0677 163.734 52.3594C163.734 51.599 163.589 50.9427 163.297 50.3906C163.005 49.8281 162.562 49.3958 161.969 49.0938C161.375 48.7917 160.625 48.6406 159.719 48.6406H155.75V68H151.453V45.25ZM164.297 68L159.031 57.8125L163.578 57.7969L168.906 67.7812V68H164.297ZM176.375 45.25V68H172.078V45.25H176.375ZM190.312 45.25V68H186.031V45.25H190.312ZM197.375 45.25V48.6406H179.047V45.25H197.375Z" fill="white"/>
<line x1="199" y1="73.5" x2="102" y2="73.5" stroke="white" stroke-width="3"/>
</svg>
